<?xml version="1.0" encoding="utf-8"?>
<!-- Generator: Adobe Illustrator 19.2.1, SVG Export Plug-In . SVG Version: 6.00 Build 0)  -->
<svg version="1.1" id="Camada_1" xmlns="http://www.w3.org/2000/svg" xmlns:xlink="http://www.w3.org/1999/xlink" x="0px" y="0px"
	 viewBox="0 0 369 201" style="enable-background:new 0 0 369 201;" xml:space="preserve">
<style type="text/css">
	.st0{fill:none;stroke:#FFFFFF;stroke-width:7;stroke-miterlimit:10;}
	.st1{fill:#FFFFFF;}
	.st2{fill:none;stroke:#FFFFFF;stroke-width:6;stroke-miterlimit:10;}
	.st3{enable-background:new    ;}
</style>
<title>convegram</title>
<path class="st0" d="M128.7,12.5H37.3c-12.5-0.1-22.8,10-22.8,22.5c0,0,0,0,0,0v91.3l-4,26.5l26.8-3.4h91.3
	c12.6-0.2,22.8-10.4,22.8-23.1V35.1C151.4,22.5,141.2,12.4,128.7,12.5C128.7,12.5,128.7,12.5,128.7,12.5z"/>
<circle class="st0" cx="268.8" cy="82.5" r="22.2"/>
<circle class="st0" cx="328.8" cy="82.5" r="22.2"/>
<line class="st0" x1="291" y1="82.4" x2="306.6" y2="82.4"/>
<rect x="235.9" y="63.9" class="st1" width="16.6" height="8.9"/>
<rect x="345.4" y="63.9" class="st1" width="16.6" height="9"/>
<line class="st2" x1="169.5" y1="82.6" x2="210.5" y2="82.6"/>
<line class="st2" x1="190" y1="103.1" x2="190" y2="62.1"/>
<g class="st3">
	<path class="st1" d="M25.8,180.8c1.1-1.1,2.5-1.7,4.2-1.7c2.3,0,3.9,0.8,5,2.3c0.6,0.8,0.9,1.7,0.9,2.6H33
		c-0.2-0.7-0.4-1.2-0.7-1.5c-0.5-0.6-1.3-0.9-2.3-0.9c-1,0-1.8,0.4-2.4,1.3c-0.6,0.8-0.9,2-0.9,3.6s0.3,2.7,0.9,3.4
		c0.6,0.8,1.4,1.1,2.4,1.1c1,0,1.7-0.3,2.2-1c0.3-0.4,0.5-0.9,0.7-1.6h2.8c-0.2,1.5-0.9,2.7-1.9,3.6s-2.3,1.4-3.9,1.4
		c-1.9,0-3.5-0.6-4.6-1.9c-1.1-1.3-1.7-3-1.7-5.2C23.9,183.9,24.5,182,25.8,180.8z"/>
	<path class="st1" d="M46.4,191.8c-0.9,1.1-2.1,1.6-3.9,1.6c-1.7,0-3-0.5-3.9-1.6s-1.3-2.3-1.3-3.8c0-1.5,0.4-2.7,1.3-3.8
		c0.9-1.1,2.1-1.6,3.9-1.6c1.7,0,3,0.5,3.9,1.6c0.9,1.1,1.3,2.3,1.3,3.8C47.7,189.4,47.2,190.7,46.4,191.8z M44.3,190.3
		c0.4-0.5,0.6-1.3,0.6-2.3s-0.2-1.8-0.6-2.3c-0.4-0.5-1-0.8-1.8-0.8c-0.8,0-1.4,0.3-1.8,0.8c-0.4,0.5-0.6,1.3-0.6,2.3
		s0.2,1.8,0.6,2.3c0.4,0.5,1,0.8,1.8,0.8C43.3,191.1,43.9,190.9,44.3,190.3z"/>
	<path class="st1" d="M57.7,183.5c0.7,0.5,1,1.5,1,2.7v6.8H56v-6.2c0-0.5-0.1-0.9-0.2-1.2c-0.3-0.5-0.7-0.8-1.5-0.8
		c-0.9,0-1.5,0.4-1.8,1.1c-0.2,0.4-0.3,0.9-0.3,1.5v5.5h-2.6v-10.1h2.6v1.5c0.3-0.5,0.7-0.9,1-1.1c0.5-0.4,1.2-0.6,2.1-0.6
		C56.2,182.6,57.1,182.9,57.7,183.5z"/>
	<path class="st1" d="M67.4,182.9h2.8L66.6,193h-2.8l-3.6-10.1h3l2.1,7.5L67.4,182.9z"/>
	<path class="st1" d="M78.3,183.1c0.7,0.3,1.3,0.8,1.7,1.5c0.4,0.6,0.7,1.3,0.8,2.1c0.1,0.5,0.1,1.1,0.1,2h-7.4c0,1,0.4,1.7,1.1,2.1
		c0.4,0.3,0.9,0.4,1.5,0.4c0.6,0,1.1-0.2,1.5-0.5c0.2-0.2,0.4-0.4,0.5-0.7h2.7c-0.1,0.6-0.4,1.2-1,1.8c-0.9,1-2.2,1.5-3.8,1.5
		c-1.3,0-2.5-0.4-3.6-1.2c-1-0.8-1.5-2.2-1.5-4c0-1.8,0.5-3.1,1.4-4s2.1-1.4,3.6-1.4C76.8,182.6,77.6,182.8,78.3,183.1z M74.4,185.4
		c-0.4,0.4-0.6,0.9-0.7,1.6h4.6c0-0.7-0.3-1.2-0.7-1.6c-0.4-0.4-0.9-0.5-1.6-0.5C75.3,184.8,74.7,185,74.4,185.4z"/>
	<path class="st1" d="M87.9,182.7c0,0,0.1,0,0.2,0v2.7c-0.2,0-0.3,0-0.4,0s-0.2,0-0.3,0c-1.1,0-1.8,0.3-2.1,1
		c-0.2,0.4-0.3,1-0.3,1.8v4.8h-2.7v-10.1h2.5v1.8c0.4-0.7,0.8-1.1,1.1-1.4c0.5-0.4,1.1-0.6,1.9-0.6
		C87.8,182.6,87.9,182.6,87.9,182.7z"/>
	<path class="st1" d="M91.7,189.8c0.1,0.5,0.2,0.8,0.4,1c0.3,0.4,0.9,0.5,1.8,0.5c0.5,0,0.9-0.1,1.2-0.2s0.5-0.4,0.5-0.7
		c0-0.3-0.1-0.5-0.4-0.7c-0.2-0.2-1.2-0.4-2.8-0.8c-1.1-0.3-2-0.6-2.4-1.1c-0.5-0.4-0.7-1-0.7-1.8c0-0.9,0.4-1.7,1.1-2.4
		c0.7-0.7,1.8-1,3.1-1c1.3,0,2.3,0.3,3.1,0.8s1.3,1.4,1.4,2.6h-2.6c0-0.3-0.1-0.6-0.3-0.8c-0.3-0.4-0.8-0.5-1.5-0.5
		c-0.6,0-1,0.1-1.2,0.3c-0.2,0.2-0.4,0.4-0.4,0.6c0,0.3,0.1,0.5,0.4,0.7c0.3,0.1,1.2,0.4,2.8,0.7c1.1,0.2,1.8,0.6,2.4,1.1
		c0.5,0.5,0.8,1.1,0.8,1.9c0,1-0.4,1.8-1.1,2.5c-0.7,0.6-1.9,1-3.5,1c-1.6,0-2.8-0.3-3.5-1s-1.1-1.5-1.1-2.6H91.7z"/>
	<path class="st1" d="M104.3,186.8c0.5-0.1,0.8-0.1,1.1-0.2c0.4-0.2,0.6-0.4,0.6-0.8c0-0.4-0.1-0.7-0.4-0.9
		c-0.3-0.2-0.7-0.2-1.3-0.2c-0.6,0-1.1,0.2-1.3,0.5c-0.2,0.2-0.3,0.5-0.4,0.9h-2.6c0.1-0.9,0.3-1.6,0.7-2.2c0.7-0.9,1.9-1.3,3.6-1.3
		c1.1,0,2.1,0.2,3,0.7c0.9,0.4,1.3,1.3,1.3,2.5v4.6c0,0.3,0,0.7,0,1.2c0,0.3,0.1,0.6,0.2,0.7c0.1,0.1,0.2,0.2,0.4,0.3v0.4h-2.9
		c-0.1-0.2-0.1-0.4-0.2-0.6c0-0.2-0.1-0.4-0.1-0.6c-0.4,0.4-0.8,0.7-1.3,1c-0.6,0.3-1.2,0.5-1.9,0.5c-0.9,0-1.7-0.3-2.3-0.8
		c-0.6-0.5-0.9-1.3-0.9-2.2c0-1.2,0.5-2.1,1.4-2.7c0.5-0.3,1.3-0.5,2.3-0.6L104.3,186.8z M105.9,188.1c-0.2,0.1-0.3,0.2-0.5,0.3
		c-0.2,0.1-0.4,0.1-0.7,0.2l-0.6,0.1c-0.6,0.1-1,0.2-1.2,0.4c-0.4,0.2-0.6,0.6-0.6,1.1c0,0.5,0.1,0.8,0.4,1s0.6,0.3,0.9,0.3
		c0.6,0,1.1-0.2,1.6-0.5s0.7-0.9,0.8-1.8V188.1z"/>
	<path class="st1" d="M116.9,186.5c0-0.4-0.2-0.7-0.4-1c-0.3-0.4-0.8-0.6-1.4-0.6c-0.9,0-1.5,0.4-1.8,1.3c-0.2,0.5-0.3,1.1-0.3,1.9
		c0,0.7,0.1,1.3,0.3,1.8c0.3,0.8,0.9,1.3,1.8,1.3c0.6,0,1.1-0.2,1.3-0.5s0.4-0.8,0.5-1.3h2.7c-0.1,0.8-0.4,1.6-0.9,2.3
		c-0.8,1.2-2,1.7-3.4,1.7l-0.6,0.9c0.2,0,0.4-0.1,0.4-0.1c0.1,0,0.2,0,0.3,0c0.5,0,0.9,0.1,1.2,0.4s0.4,0.6,0.4,1.1
		c0,0.6-0.2,1-0.7,1.4s-1.1,0.5-1.8,0.5c-0.3,0-0.7-0.1-1.1-0.2c-0.2-0.1-0.5-0.2-0.9-0.3l0.4-0.8c0.4,0.1,0.6,0.2,0.7,0.2
		c0.3,0.1,0.5,0.1,0.7,0.1c0.4,0,0.6-0.1,0.8-0.2c0.2-0.2,0.2-0.3,0.2-0.5c0-0.3-0.1-0.4-0.3-0.6c-0.2-0.1-0.4-0.2-0.6-0.2
		c-0.1,0-0.2,0-0.4,0c-0.1,0-0.3,0.1-0.4,0.1l-0.4-0.4l0.9-1.4c-1.2,0-2.1-0.5-2.9-1.4c-0.8-1-1.2-2.2-1.2-3.8
		c0-1.7,0.4-3.1,1.3-4.1s2-1.4,3.5-1.4c1.3,0,2.3,0.3,3.1,0.9c0.8,0.6,1.3,1.6,1.4,3H116.9z"/>
	<path class="st1" d="M125.4,186.8c0.5-0.1,0.8-0.1,1.1-0.2c0.4-0.2,0.6-0.4,0.6-0.8c0-0.4-0.1-0.7-0.4-0.9
		c-0.3-0.2-0.7-0.2-1.3-0.2c-0.6,0-1.1,0.2-1.3,0.5c-0.2,0.2-0.3,0.5-0.4,0.9H121c0.1-0.9,0.3-1.6,0.7-2.2c0.7-0.9,1.9-1.3,3.6-1.3
		c1.1,0,2.1,0.2,3,0.7c0.9,0.4,1.3,1.3,1.3,2.5v4.6c0,0.3,0,0.7,0,1.2c0,0.3,0.1,0.6,0.2,0.7c0.1,0.1,0.2,0.2,0.4,0.3v0.4h-2.9
		c-0.1-0.2-0.1-0.4-0.2-0.6c0-0.2-0.1-0.4-0.1-0.6c-0.4,0.4-0.8,0.7-1.3,1c-0.6,0.3-1.2,0.5-1.9,0.5c-0.9,0-1.7-0.3-2.3-0.8
		c-0.6-0.5-0.9-1.3-0.9-2.2c0-1.2,0.5-2.1,1.4-2.7c0.5-0.3,1.3-0.5,2.3-0.6L125.4,186.8z M124.8,179.1c0.2,0,0.3,0.1,0.4,0.1
		l0.9,0.3c0.3,0.1,0.4,0.1,0.5,0.2c0.1,0,0.2,0,0.3,0c0.3,0,0.5-0.1,0.6-0.2c0.1-0.2,0.2-0.3,0.3-0.6h1.2c-0.1,0.6-0.3,1.2-0.7,1.6
		c-0.3,0.4-0.8,0.7-1.5,0.7c-0.2,0-0.5,0-0.8-0.1c-0.2,0-0.4-0.1-0.6-0.2l-0.8-0.3c-0.1,0-0.2-0.1-0.3-0.1c-0.1,0-0.2,0-0.3,0
		c-0.2,0-0.4,0.1-0.6,0.2c-0.1,0.1-0.3,0.3-0.3,0.6H122c0.1-0.6,0.3-1.1,0.5-1.5c0.4-0.6,1-0.9,1.8-0.9
		C124.5,179.1,124.6,179.1,124.8,179.1z M127,188.1c-0.2,0.1-0.3,0.2-0.5,0.3c-0.2,0.1-0.4,0.1-0.7,0.2l-0.6,0.1
		c-0.6,0.1-1,0.2-1.2,0.4c-0.4,0.2-0.6,0.6-0.6,1.1c0,0.5,0.1,0.8,0.4,1s0.6,0.3,0.9,0.3c0.6,0,1.1-0.2,1.6-0.5s0.7-0.9,0.8-1.8
		V188.1z"/>
	<path class="st1" d="M140.4,191.8c-0.9,1.1-2.1,1.6-3.9,1.6c-1.7,0-3-0.5-3.9-1.6s-1.3-2.3-1.3-3.8c0-1.5,0.4-2.7,1.3-3.8
		c0.9-1.1,2.1-1.6,3.9-1.6c1.7,0,3,0.5,3.9,1.6c0.9,1.1,1.3,2.3,1.3,3.8C141.7,189.4,141.2,190.7,140.4,191.8z M138.3,190.3
		c0.4-0.5,0.6-1.3,0.6-2.3s-0.2-1.8-0.6-2.3c-0.4-0.5-1-0.8-1.8-0.8c-0.8,0-1.4,0.3-1.8,0.8c-0.4,0.5-0.6,1.3-0.6,2.3
		s0.2,1.8,0.6,2.3c0.4,0.5,1,0.8,1.8,0.8C137.3,191.1,137.9,190.9,138.3,190.3z"/>
</g>
<g class="st3">
	<path class="st1" d="M265.8,183.6c-0.2-0.9-0.7-1.6-1.6-2c-0.5-0.2-1-0.3-1.6-0.3c-1.1,0-2,0.4-2.7,1.2c-0.7,0.8-1.1,2.1-1.1,3.7
		c0,1.7,0.4,2.9,1.2,3.6c0.8,0.7,1.6,1,2.6,1c1,0,1.7-0.3,2.4-0.8c0.6-0.6,1-1.3,1.1-2.2H263v-2.3h5.7v7.3h-1.9l-0.3-1.7
		c-0.6,0.6-1,1.1-1.5,1.4c-0.8,0.5-1.7,0.7-2.8,0.7c-1.8,0-3.3-0.6-4.5-1.9c-1.2-1.3-1.8-3-1.8-5.2c0-2.2,0.6-4,1.8-5.3
		c1.2-1.3,2.8-2,4.8-2c1.7,0,3.1,0.4,4.2,1.3c1.1,0.9,1.7,2,1.8,3.3H265.8z"/>
	<path class="st1" d="M276.8,182.7c0,0,0.1,0,0.2,0v2.7c-0.2,0-0.3,0-0.4,0s-0.2,0-0.3,0c-1.1,0-1.8,0.3-2.1,1
		c-0.2,0.4-0.3,1-0.3,1.8v4.8h-2.7v-10.1h2.5v1.8c0.4-0.7,0.8-1.1,1.1-1.4c0.5-0.4,1.1-0.6,1.9-0.6
		C276.7,182.6,276.8,182.6,276.8,182.7z"/>
	<path class="st1" d="M282.6,186.8c0.5-0.1,0.8-0.1,1.1-0.2c0.4-0.2,0.6-0.4,0.6-0.8c0-0.4-0.1-0.7-0.4-0.9
		c-0.3-0.2-0.7-0.2-1.3-0.2c-0.6,0-1.1,0.2-1.3,0.5c-0.2,0.2-0.3,0.5-0.4,0.9h-2.6c0.1-0.9,0.3-1.6,0.7-2.2c0.7-0.9,1.9-1.3,3.6-1.3
		c1.1,0,2.1,0.2,3,0.7c0.9,0.4,1.3,1.3,1.3,2.5v4.6c0,0.3,0,0.7,0,1.2c0,0.3,0.1,0.6,0.2,0.7c0.1,0.1,0.2,0.2,0.4,0.3v0.4h-2.9
		c-0.1-0.2-0.1-0.4-0.2-0.6c0-0.2-0.1-0.4-0.1-0.6c-0.4,0.4-0.8,0.7-1.3,1c-0.6,0.3-1.2,0.5-1.9,0.5c-0.9,0-1.7-0.3-2.3-0.8
		c-0.6-0.5-0.9-1.3-0.9-2.2c0-1.2,0.5-2.1,1.4-2.7c0.5-0.3,1.3-0.5,2.3-0.6L282.6,186.8z M284.2,188.1c-0.2,0.1-0.3,0.2-0.5,0.3
		c-0.2,0.1-0.4,0.1-0.7,0.2l-0.6,0.1c-0.6,0.1-1,0.2-1.2,0.4c-0.4,0.2-0.6,0.6-0.6,1.1c0,0.5,0.1,0.8,0.4,1c0.3,0.2,0.6,0.3,0.9,0.3
		c0.6,0,1.1-0.2,1.6-0.5c0.5-0.3,0.7-0.9,0.8-1.8V188.1z"/>
	<path class="st1" d="M301.8,182.9c0.4,0.2,0.8,0.5,1.2,0.9c0.3,0.4,0.5,0.8,0.6,1.3c0.1,0.3,0.1,0.8,0.1,1.5l0,6.4h-2.7v-6.4
		c0-0.4-0.1-0.7-0.2-0.9c-0.2-0.5-0.7-0.7-1.3-0.7c-0.7,0-1.2,0.3-1.5,0.9c-0.1,0.3-0.2,0.7-0.2,1.2v6H295v-6c0-0.6-0.1-1-0.2-1.3
		c-0.2-0.5-0.7-0.7-1.3-0.7c-0.8,0-1.3,0.2-1.5,0.7c-0.1,0.3-0.2,0.7-0.2,1.2v6.1h-2.7v-10.1h2.6v1.5c0.3-0.5,0.6-0.9,0.9-1.1
		c0.5-0.4,1.2-0.6,2-0.6c0.8,0,1.4,0.2,1.9,0.5c0.4,0.3,0.7,0.7,0.9,1.2c0.3-0.6,0.8-1,1.3-1.3c0.5-0.3,1.2-0.4,1.8-0.4
		C300.9,182.7,301.3,182.8,301.8,182.9z"/>
	<path class="st1" d="M310,186.8c0.5-0.1,0.8-0.1,1.1-0.2c0.4-0.2,0.6-0.4,0.6-0.8c0-0.4-0.1-0.7-0.4-0.9c-0.3-0.2-0.7-0.2-1.3-0.2
		c-0.6,0-1.1,0.2-1.3,0.5c-0.2,0.2-0.3,0.5-0.4,0.9h-2.6c0.1-0.9,0.3-1.6,0.7-2.2c0.7-0.9,1.9-1.3,3.6-1.3c1.1,0,2.1,0.2,3,0.7
		c0.9,0.4,1.3,1.3,1.3,2.5v4.6c0,0.3,0,0.7,0,1.2c0,0.3,0.1,0.6,0.2,0.7c0.1,0.1,0.2,0.2,0.4,0.3v0.4H312c-0.1-0.2-0.1-0.4-0.2-0.6
		c0-0.2-0.1-0.4-0.1-0.6c-0.4,0.4-0.8,0.7-1.3,1c-0.6,0.3-1.2,0.5-1.9,0.5c-0.9,0-1.7-0.3-2.3-0.8c-0.6-0.5-0.9-1.3-0.9-2.2
		c0-1.2,0.5-2.1,1.4-2.7c0.5-0.3,1.3-0.5,2.3-0.6L310,186.8z M311.6,188.1c-0.2,0.1-0.3,0.2-0.5,0.3c-0.2,0.1-0.4,0.1-0.7,0.2
		l-0.6,0.1c-0.6,0.1-1,0.2-1.2,0.4c-0.4,0.2-0.6,0.6-0.6,1.1c0,0.5,0.1,0.8,0.4,1c0.3,0.2,0.6,0.3,0.9,0.3c0.6,0,1.1-0.2,1.6-0.5
		c0.5-0.3,0.7-0.9,0.8-1.8V188.1z M313.3,178.8l-2.8,2.8h-1.9l1.8-2.8H313.3z"/>
	<path class="st1" d="M315.6,184.9V183h1.4v-2.8h2.6v2.8h1.6v1.9h-1.6v5.3c0,0.4,0.1,0.7,0.2,0.8c0.1,0.1,0.4,0.2,1,0.2
		c0.1,0,0.2,0,0.3,0c0.1,0,0.2,0,0.3,0v2l-1.3,0c-1.2,0-2.1-0.2-2.6-0.6c-0.3-0.3-0.4-0.8-0.4-1.4v-6.2H315.6z"/>
	<path class="st1" d="M325.6,181.7H323v-2.4h2.7V181.7z M323,182.9h2.7V193H323V182.9z"/>
	<path class="st1" d="M334.2,186.5c0-0.4-0.2-0.7-0.4-1c-0.3-0.4-0.8-0.6-1.4-0.6c-0.9,0-1.5,0.4-1.8,1.3c-0.2,0.5-0.3,1.1-0.3,1.9
		c0,0.7,0.1,1.3,0.3,1.8c0.3,0.8,0.9,1.3,1.8,1.3c0.6,0,1.1-0.2,1.3-0.5c0.3-0.3,0.4-0.8,0.5-1.3h2.7c-0.1,0.8-0.4,1.6-0.9,2.3
		c-0.8,1.2-2.1,1.7-3.7,1.7c-1.6,0-2.8-0.5-3.6-1.4c-0.8-1-1.2-2.2-1.2-3.8c0-1.7,0.4-3.1,1.3-4c0.8-1,2-1.4,3.5-1.4
		c1.3,0,2.3,0.3,3.1,0.9s1.3,1.6,1.4,3H334.2z"/>
	<path class="st1" d="M342.8,186.8c0.5-0.1,0.8-0.1,1.1-0.2c0.4-0.2,0.6-0.4,0.6-0.8c0-0.4-0.1-0.7-0.4-0.9
		c-0.3-0.2-0.7-0.2-1.3-0.2c-0.6,0-1.1,0.2-1.3,0.5c-0.2,0.2-0.3,0.5-0.4,0.9h-2.6c0.1-0.9,0.3-1.6,0.7-2.2c0.7-0.9,1.9-1.3,3.6-1.3
		c1.1,0,2.1,0.2,3,0.7c0.9,0.4,1.3,1.3,1.3,2.5v4.6c0,0.3,0,0.7,0,1.2c0,0.3,0.1,0.6,0.2,0.7c0.1,0.1,0.2,0.2,0.4,0.3v0.4h-2.9
		c-0.1-0.2-0.1-0.4-0.2-0.6s-0.1-0.4-0.1-0.6c-0.4,0.4-0.8,0.7-1.3,1c-0.6,0.3-1.2,0.5-1.9,0.5c-0.9,0-1.7-0.3-2.3-0.8
		s-0.9-1.3-0.9-2.2c0-1.2,0.5-2.1,1.4-2.7c0.5-0.3,1.3-0.5,2.3-0.6L342.8,186.8z M344.4,188.1c-0.2,0.1-0.3,0.2-0.5,0.3
		c-0.2,0.1-0.4,0.1-0.7,0.2l-0.6,0.1c-0.6,0.1-1,0.2-1.2,0.4c-0.4,0.2-0.6,0.6-0.6,1.1c0,0.5,0.1,0.8,0.4,1c0.3,0.2,0.6,0.3,0.9,0.3
		c0.6,0,1.1-0.2,1.6-0.5c0.5-0.3,0.7-0.9,0.8-1.8V188.1z"/>
</g>
<g class="st3">
	<path class="st1" d="M183.1,189.2v-2.4h3.8V183h2.4v3.8h3.8v2.4h-3.8v3.8h-2.4v-3.8H183.1z"/>
</g>
</svg>
