<svg id="Camada_1" data-name="Camada 1" xmlns="http://www.w3.org/2000/svg" viewBox="0 0 369 201"><defs><style>.cls-1,.cls-3{fill:none;stroke:#fff;stroke-miterlimit:10;}.cls-1{stroke-width:7px;}.cls-2,.cls-4{fill:#fff;}.cls-3{stroke-width:6px;}.cls-4{font-size:19px;font-family:Geomanist;}</style></defs><title>convegram</title><path class="cls-1" d="M128.67,12.5H37.33A22.69,22.69,0,0,0,14.5,35.08v91.33l-4,26.46,26.83-3.37h91.33a23.12,23.12,0,0,0,22.83-23.08V35.08A22.69,22.69,0,0,0,128.67,12.5Z"/><circle class="cls-1" cx="268.82" cy="82.5" r="22.18"/><circle class="cls-1" cx="328.75" cy="82.5" r="22.18"/><line class="cls-1" x1="291" y1="82.37" x2="306.57" y2="82.37"/><rect class="cls-2" x="235.88" y="63.87" width="16.56" height="8.88"/><rect class="cls-2" x="345.38" y="63.87" width="16.63" height="9.03"/><line class="cls-3" x1="169.47" y1="82.59" x2="210.47" y2="82.59"/><line class="cls-3" x1="189.97" y1="103.09" x2="189.97" y2="62.09"/><text class="cls-4" transform="translate(28 193)">Conversação</text><text class="cls-4" transform="translate(260.16 193)">Gramática</text><text class="cls-4" transform="translate(187.43 193)">+</text></svg>